# xmcd CD database file
#
# Track frame offsets:
#	183
#	17308
#	41333
#	58583
#	78858
#	149208
#	174108
#	200133
#	219383
#	240733
#
# Disc length: 3385 seconds
#
# Revision: 2
# Processed by: cddbd v1.4b41PL1 Copyright (c) Steve Scherf et al.
# Submitted via: Feurio! 1.60 - http://www.feurio.com
#
DISCID=7b0d370a,820d370a
DTITLE=BURNIN' TUBES - "The road"
DYEAR=1900
DGENRE=
TTITLE0=She's out there somewhere
TTITLE1=I like your way
TTITLE2=Where the next one coming from
TTITLE3=Give it to me
TTITLE4=The Bugs medey
TTITLE5=Hard to be
TTITLE6=I'm really down
TTITLE7=Too many drivers at the wheel
TTITLE8=Fellin' free
TTITLE9=Travelin' band
EXTD=
EXTT0=
EXTT1=
EXTT2=
EXTT3=
EXTT4=
EXTT5=
EXTT6=
EXTT7=
EXTT8=
EXTT9=
PLAYORDER=
